<?xml version="1.0" standalone="no"?>
<!DOCTYPE svg PUBLIC "-//W3C//DTD SVG 20010904//EN"
 "http://www.w3.org/TR/2001/REC-SVG-20010904/DTD/svg10.dtd">
<svg version="1.0" xmlns="http://www.w3.org/2000/svg"
 width="150.000000pt" height="150.000000pt" viewBox="0 0 150.000000 150.000000"
 preserveAspectRatio="xMidYMid meet">
<metadata>
Created by potrace 1.11, written by Peter Selinger 2001-2013
</metadata>
<g transform="translate(0.000000,150.000000) scale(0.100000,-0.100000)"
fill="#000000" stroke="none">
<path d="M425 1343 c-157 -33 -301 -136 -361 -258 -26 -53 -29 -71 -29 -150 0
-78 4 -97 28 -147 15 -31 47 -78 70 -105 43 -48 43 -48 35 -102 -5 -30 -21
-91 -37 -137 -24 -69 -27 -86 -17 -100 10 -13 22 -16 48 -11 53 8 176 72 231
118 l47 41 -24 29 c-69 81 -91 256 -47 372 68 175 259 297 492 314 79 5 86 8
77 23 -17 27 -94 69 -177 96 -96 32 -235 39 -336 17z"/>
<path d="M785 1142 c-135 -35 -261 -119 -320 -212 -49 -78 -69 -184 -50 -270
13 -62 67 -150 123 -201 105 -96 276 -153 436 -146 75 4 80 2 107 -24 63 -61
238 -159 285 -159 46 0 49 23 16 123 -17 50 -34 114 -37 140 -7 46 -6 50 25
80 44 43 88 113 102 162 59 216 -79 419 -341 501 -76 24 -263 27 -346 6z"/>
</g>
</svg>
